Death Race (unrated) 2008 BRRip.H264.5.1Ch-MS   
      Format : MPEG-4
      Format profile : Base Media / Version 2
      Codec ID : mp42
      File size : 1.54 GiB
      Duration : 1h 50mn
      Overall bit rate : 1 997 Kbps
   Video #1
      Format : AVC
      Format/Info : Advanced Video Codec
      Format profile : High@L3.1
      Format settings, CABAC : Yes
      Format settings, ReFrames : 3 frames
      Codec ID : avc1
      Codec ID/Info : Advanced Video Coding
      Duration : 1h 50mn
      Bit rate mode : Variable
      Bit rate : 1 800 Kbps
      Width : 1 280 pixels
      Height : 544 pixels
      Display aspect ratio : 2.35
      Frame rate mode : Variable
      Frame rate : 23.976 fps
      Resolution : 24 bits
      Colorimetry : 4:2:0
      Scan type : Progressive
      Bits/(Pixel*Frame) : 0.108
      Stream size : 1.39 GiB (90%)
      Writing library : x264 core 65

   Audio #2
      Format : AAC
      Format/Info : Advanced Audio Codec
      Format version : Version 4
      Format profile : LC
      Format settings, SBR : No
      Codec ID : 40
      Duration : 1h 50mn
      Bit rate mode : Variable
      Bit rate : 192 Kbps
      Maximum bit rate : 266 Kbps
      Channel(s) : 6 channels
      Channel positions : Front: L C R, Rear: L R, LFE
      Sampling rate : 48.0 KHz
      Resolution : 16 bits
      Stream size : 152 MiB (10%)

Be Patience I only Seed from 8pm to 5am full speed up to 300Kbps....Thanx and Enjoy!!! 

Note: Just leave a Comment..................